<svg width="512" height="465" viewBox="0 0 512 465" xmlns="http://www.w3.org/2000/svg" preserveAspectRatio="xMidYMid"><path d="M371.28 234.548s78.13 174.56 13.148 221.45c-64.982 46.89-185.29-121.295-185.29-121.295l63.097-100.155H371.28z" fill-opacity=".9" fill="#E00097"/><path d="M313.768 334.957S200.826 492.055 127.553 459.613C54.281 427.17 141.795 234.96 141.795 234.96h112.79l59.183 99.998z" fill-opacity=".9" fill="#7649BB"/><path d="M199.137 334.704S8.795 316.098.257 236.42c-8.54-79.679 198.515-100.94 198.515-100.94l-51.894 101.73 52.26 97.494z" fill-opacity=".9" fill="#F26B00"/><path d="M141.376 234.965S61.412 55.34 126.146 8.106C190.88-39.128 313.723 135.51 313.723 135.51l-61.266 99.455H141.376z" fill-opacity=".9" fill="#E00097"/><path d="M198.57 135.962s7.838-12.357 10.662-16.103C230.251 91.967 322.821-24.103 387.416 4.499c63.615 28.168 9.208 173.502-6.24 211.325-2.345 5.742-10.594 18.575-10.594 18.575H256.9l-58.33-98.437z" fill-opacity=".9" fill="#7649BB"/><path d="M313.723 135.51s188.98 18.04 197.52 97.718c8.537 79.679-197.282 101.206-197.282 101.206l-55.963-101.206 55.725-97.718z" fill-opacity=".9" fill="#F26B00"/><path d="M376.433 234.895c.01 18.46-1.5 50.313-2.62 67.595-14.536 9.838-41.535 27.378-57.498 36.594-15.9 9.18-44.067 23.702-59.517 31.334-15.958-7.642-44.751-22.136-60.601-31.262 0 0-42.592-26.59-57.107-36.488-1.335-17.55-3.134-67.656-3.134-67.656-.009-18.237 1.765-50.166 3.09-67.68 14.532-9.924 57.032-36.505 57.032-36.505 15.816-9.132 44.434-23.58 60.293-31.192 15.647 7.593 43.999 22.01 59.82 31.12 16 9.213 42.847 26.432 57.265 36.037 1.261 17.506 2.977 68.103 2.977 68.103" fill="#00D8FF"/><path d="M307.955 236.5c0 28.464-23.075 51.54-51.54 51.54-28.463 0-51.539-23.076-51.539-51.54s23.076-51.54 51.54-51.54 51.54 23.076 51.54 51.54" fill="#FFF"/></svg>