<svg version="1" xmlns="http://www.w3.org/2000/svg" width="21.333" height="21.333" viewBox="0 0 16.000000 16.000000"><path d="M4.375.794a1.306 1.306 0 0 0-.61.375c-.3.3-.474.684-.565 1.231-.047.29-.053 1.11-.01 1.412l.044.313c.022.206.05.36.16.856.06.272.106.497.1.5-.006.007-.15.047-.322.097-1.138.316-2.078.775-2.616 1.272-.64.59-.728 1.35-.243 2.072.421.628 1.309 1.169 2.618 1.597.232.075.438.137.463.137.081 0 .078.081-.016.447-.081.319-.181.8-.237 1.147a6.67 6.67 0 0 0-.06 1.016c.003.496.072.856.232 1.184.106.225.415.566.487.537.025-.009.038-.006.028.013-.019.031.1.1.319.178.162.056.74.075.947.031.194-.043.36-.093.387-.122a.153.153 0 0 1 .072-.025c.056 0 .613-.278.638-.318.009-.016.03-.028.043-.022.013.003.188-.106.388-.247.369-.26.79-.603 1.166-.963L8 13.316l.134.13c1.029.995 1.863 1.557 2.585 1.745 1.103.284 1.912-.397 2.078-1.754.05-.396 0-1.328-.097-1.825-.006-.034-.022-.115-.031-.175a11.42 11.42 0 0 0-.156-.693c-.01-.038.012-.057.087-.072.175-.038 1.09-.344 1.353-.453.781-.322 1.425-.757 1.716-1.15.131-.178.281-.472.256-.497-.01-.013-.003-.038.019-.063.019-.025.034-.156.034-.3a1.624 1.624 0 0 0-.269-.906c-.128-.203-.587-.669-.734-.744a.695.695 0 0 1-.14-.097 1.596 1.596 0 0 0-.204-.128l-.287-.153a7.655 7.655 0 0 0-.39-.181 4.382 4.382 0 0 1-.282-.128 10.91 10.91 0 0 0-.538-.185c-.28-.09-.509-.18-.509-.2 0-.018.047-.225.106-.456.122-.469.232-1.015.257-1.281l.04-.39c.025-.22.019-.913-.01-1.032-.005-.034-.03-.153-.05-.266C12.748.906 11.692.45 10.445.97c-.585.243-1.11.603-1.9 1.297-.022.015-.15.143-.29.278l-.257.247-.125-.122a14.518 14.518 0 0 0-1.325-1.163C6.15 1.196 5.519.881 5.14.8 4.888.747 4.547.744 4.375.794z"/></svg>